<?xml version="1.0" encoding="UTF-8" standalone="no"?>
<!-- Created with Inkscape (http://www.inkscape.org/) -->

<svg
   xmlns:dc="http://purl.org/dc/elements/1.1/"
   xmlns:cc="http://creativecommons.org/ns#"
   xmlns:rdf="http://www.w3.org/1999/02/22-rdf-syntax-ns#"
   xmlns:svg="http://www.w3.org/2000/svg"
   xmlns="http://www.w3.org/2000/svg"
   xmlns:xlink="http://www.w3.org/1999/xlink"
   xmlns:sodipodi="http://sodipodi.sourceforge.net/DTD/sodipodi-0.dtd"
   xmlns:inkscape="http://www.inkscape.org/namespaces/inkscape"
   width="149mm"
   height="118mm"
   viewBox="0 0 149 118"
   version="1.1"
   id="svg8"
   inkscape:version="0.92.4 5da689c313, 2019-01-14"
   sodipodi:docname="metodosN.svg">
  <defs
     id="defs2">
    <clipPath
       clipPathUnits="userSpaceOnUse"
       id="clipPath56">
      <use
         x="0"
         y="0"
         xlink:href="#g52"
         id="use58"
         width="100%"
         height="100%" />
    </clipPath>
  </defs>
  <sodipodi:namedview
     id="base"
     pagecolor="#ffffff"
     bordercolor="#666666"
     borderopacity="1.0"
     inkscape:pageopacity="0.0"
     inkscape:pageshadow="2"
     inkscape:zoom="0.98994949"
     inkscape:cx="335.56459"
     inkscape:cy="144.25881"
     inkscape:document-units="mm"
     inkscape:current-layer="layer1"
     showgrid="false"
     inkscape:window-width="1366"
     inkscape:window-height="695"
     inkscape:window-x="0"
     inkscape:window-y="0"
     inkscape:window-maximized="1" />
  <metadata
     id="metadata5">
    <rdf:RDF>
      <cc:Work
         rdf:about="">
        <dc:format>image/svg+xml</dc:format>
        <dc:type
           rdf:resource="http://purl.org/dc/dcmitype/StillImage" />
        <dc:title></dc:title>
      </cc:Work>
    </rdf:RDF>
  </metadata>
  <g
     inkscape:label="Capa 1"
     inkscape:groupmode="layer"
     id="layer1"
     transform="translate(0,-179)">
    <g
       id="g54"
       clip-path="url(#clipPath56)"
       transform="matrix(1.394015,0,0,1.3887148,-78.50859,32.169958)"
       inkscape:export-xdpi="35.200001"
       inkscape:export-ydpi="35.200001">
      <g
         inkscape:label="Clip"
         id="g52">
        <rect
           y="105.63502"
           x="56.126598"
           height="68.955536"
           width="101.02789"
           id="rect24"
           style="fill:#0000ff;stroke-width:0.26458332" />
        <rect
           y="174.59055"
           x="56.126598"
           height="16.30344"
           width="107.17508"
           id="rect26"
           style="fill:#000080;stroke-width:0.26392597" />
        <rect
           y="105.63502"
           x="157.1545"
           height="68.955536"
           width="6.1471815"
           id="rect31"
           style="fill:#800080;stroke-width:0.23427004" />
        <path
           inkscape:connector-curvature="0"
           d="m 63.281744,161.22568 c 0.769081,-1.58599 1.108157,-3.34375 1.515147,-5.04654 0.512017,-2.1422 0.442146,-1.81986 1.026274,-3.98348 0.876028,-2.74512 1.988622,-5.40949 2.846962,-8.16015 0.527515,-1.69049 0.580011,-2.0256 0.983308,-3.70235 0.321913,-1.52377 0.559972,-3.06855 0.901747,-4.58815 0.271635,-1.20774 0.647158,-2.39418 0.981726,-3.58539 0.515996,-2.03417 0.858589,-4.10903 1.382282,-6.14067 0.516186,-1.72422 0.914455,-3.47722 1.130842,-5.2639 0.175988,-2.07146 -0.233352,-1.19782 3.625517,-2.5773 0.10905,-0.039 -0.01212,0.23181 -0.0049,0.3474 0.0114,0.183 0.04044,0.36448 0.06066,0.54672 0.241231,1.24616 0.281834,2.51937 0.439544,3.77529 0.09132,0.72721 0.206698,1.1961 0.358238,1.90332 0.234495,1.54954 1.067925,2.87359 1.749864,4.25055 0.225925,0.65137 0.587047,1.24247 0.871609,1.86667 0.197096,0.43233 0.3804,0.98345 0.584917,1.4095 0.125087,0.26058 0.274095,0.50899 0.411142,0.76348 0.807669,1.54776 1.679061,3.05647 2.625415,4.52315 0.138303,0.10269 0.389038,0.90123 0.721032,0.73784 0.14904,-0.0734 0.533302,-0.38879 0.38222,-0.31975 -2.774093,1.26771 -3.469217,2.21309 -1.741543,0.39472 1.91145,-2.21255 3.560106,-4.64949 5.072456,-7.14881 0.921991,-1.44329 1.756302,-2.94319 2.483406,-4.49384 0.532011,-0.9718 0.814411,-2.02698 1.097574,-3.09004 0.155329,-0.61891 0.2692,-1.24673 0.38935,-1.873 0.01799,-0.0938 0.04,-0.18695 0.05492,-0.28132 0.0069,-0.0434 -0.02897,-0.11183 0.01035,-0.1315 1.18563,-0.59308 2.403999,-1.11831 3.605996,-1.67746 0.436906,1.77984 0.520433,3.62046 0.631772,5.4423 0.06191,1.63797 0.08624,3.28335 0.201433,4.91899 0.05788,0.8219 0.213238,2.04322 0.309956,2.85688 0.328676,2.5541 0.540936,5.1198 0.657326,7.69176 0.07212,1.85948 0.07227,3.72069 0.09064,5.58122 -0.08857,1.40209 0.119123,2.73856 0.340444,4.11486 0.180105,0.96555 0.225727,1.95154 0.447413,2.90925 0.01056,0.0456 0.317665,1.20888 0.333984,1.27077 0.295253,0.99923 0.306713,2.03816 0.291543,3.06998 -0.003,0.14568 -0.005,0.29136 -0.008,0.43704 0,0 -3.49486,1.77051 -3.49486,1.77051 v 0 c 0.0042,-0.14564 0.0085,-0.29128 0.01273,-0.43692 0.01942,-1.00216 0.06037,-2.01833 -0.208886,-2.99515 -0.166394,-0.66352 -0.379063,-1.33356 -0.49053,-2.00895 -0.120896,-0.73254 -0.111019,-1.48868 -0.276127,-2.21606 -0.127772,-0.7239 -0.334264,-1.47271 -0.396377,-2.20579 -0.05499,-0.64901 0.07014,-1.31415 0.02246,-1.96406 0.01876,-1.86584 0.01945,-3.73193 -0.0267,-5.59746 -0.08121,-2.57358 -0.236128,-5.14515 -0.575303,-7.69934 -0.05397,-0.43098 -0.307834,-2.42393 -0.346657,-2.86826 -0.142277,-1.62848 -0.182178,-3.27028 -0.220816,-4.90345 -0.109743,-1.74775 -0.176421,-3.56163 -0.777623,-5.22299 1.177269,-0.62066 2.357715,-1.23533 3.531804,-1.86198 0.03093,-0.0165 -0.08139,0.001 -0.100635,0.0306 -0.05453,0.0831 -0.07506,0.18434 -0.10311,0.27964 -0.183952,0.625 -0.283708,1.27288 -0.432856,1.906 -0.105685,0.44894 -0.230799,0.89325 -0.331362,1.34336 -0.03645,0.16317 -0.04142,0.3332 -0.08784,0.49382 -0.134432,0.46515 -0.471291,0.85917 -0.630406,1.31366 -0.750269,1.57868 -1.599256,3.11023 -2.556603,4.57317 -1.56237,2.4927 -3.22226,4.93741 -5.076187,7.22295 -1.695281,2.02157 -0.900541,1.27415 -4.763572,3.46777 -0.178607,0.10142 -0.405595,0.11905 -0.609237,0.0923 -0.41638,-0.0547 -0.575601,-0.72556 -0.778106,-0.9805 -0.881795,-1.51139 -1.770361,-3.01721 -2.596615,-4.5601 -0.1485,-0.26223 -0.309015,-0.51801 -0.445498,-0.78669 -0.32408,-0.63798 -0.308459,-0.75334 -0.592793,-1.37987 -0.196612,-0.43323 -0.441862,-0.84331 -0.637493,-1.27698 -0.08766,-0.19432 -0.157059,-0.39636 -0.235587,-0.59453 -0.673778,-1.4165 -1.54201,-2.77012 -1.754484,-4.35767 -0.110527,-0.56613 -0.279979,-1.39097 -0.353261,-1.95381 -0.16066,-1.23393 -0.20157,-2.48853 -0.516128,-3.70017 -0.04442,-0.19254 -0.100851,-0.38269 -0.133255,-0.5776 -0.01717,-0.10325 -0.102822,-0.25684 -0.01492,-0.31363 4.289396,-2.77106 3.632499,-3.03566 3.371278,-0.96194 -0.251761,1.81368 -0.656831,3.59734 -1.193633,5.34886 -0.546185,2.02761 -0.835975,4.11739 -1.377487,6.14771 -0.351253,1.19471 -0.770221,2.37665 -1.06018,3.58841 -0.367094,1.53411 -0.624674,3.09779 -0.966338,4.63757 -0.428408,1.70204 -0.48813,2.03993 -1.028618,3.75621 -0.863169,2.74094 -1.947045,5.40653 -2.845903,8.1355 -0.499949,1.88425 -0.571423,2.06505 -0.978866,3.94181 -0.313859,1.44567 -0.565705,2.91849 -0.967822,4.34437 -0.06162,0.2185 -0.155535,0.42659 -0.233302,0.63989 0,0 -3.58526,1.64174 -3.58526,1.64174 z"
           id="path49"
           style="fill:#ffb380;stroke-width:0.26458332" />
        <path
           inkscape:connector-curvature="0"
           d="m 114.59103,156.97443 c 0.0787,-0.22851 0.17731,-0.45112 0.23621,-0.68553 0.38113,-1.51684 0.56522,-3.08985 0.75729,-4.63734 0.34968,-2.8173 0.17904,-1.37817 0.50407,-4.2563 0.31567,-3.88533 0.24718,-7.7872 0.21613,-11.68114 -0.007,-0.55482 -0.0136,-1.10966 -0.022,-1.66446 -0.0211,-1.38219 0.005,-1.5087 -0.1411,-2.83501 -0.10745,-0.97335 -0.29875,-1.93674 -0.44368,-2.90482 -0.23349,-1.81052 -0.27431,-3.63729 -0.33245,-5.45957 -0.009,-0.20893 -0.0164,-0.41791 -0.0262,-0.6268 -0.007,-0.143 -0.0133,-0.28604 -0.0233,-0.42884 -0.005,-0.077 -0.11035,-0.19509 -0.0405,-0.22812 3.60569,-1.70576 3.72925,-2.94927 3.52865,-1.49019 0.0851,0.61782 0.0776,1.25089 0.22845,1.85928 0.0773,0.31198 0.42463,1.29191 0.52132,1.57138 0.87496,2.12536 1.60051,4.31352 2.19702,6.53251 0.3789,1.52415 1.12952,2.91138 1.61887,4.39668 0.22557,0.68466 0.41914,1.37949 0.63659,2.06678 0.58902,1.51432 0.82559,3.12286 1.31986,4.66414 0.54015,0.96736 1.04138,1.96273 1.70288,2.85367 0.76249,1.34055 1.3389,2.77555 1.89221,4.21255 0.38344,1.364 0.90773,2.68231 1.6477,3.89027 0.47882,0.94837 1.34592,1.56159 2.11607,2.25747 -0.0174,-0.0283 0.30731,0.31023 0.41382,0.20009 0.0492,-0.0508 0.0952,-0.24233 0.0325,-0.20966 -1.11887,0.58264 -2.15953,1.30716 -3.27422,1.89777 -0.0662,0.0351 0.0664,-0.13545 0.085,-0.20801 0.0265,-0.10341 0.0329,-0.21095 0.0494,-0.31643 0.0623,-0.51721 0.0484,-1.03956 0.0933,-1.55783 0.0414,-0.47746 0.32355,-2.74893 0.36331,-3.10505 0.19969,-1.78894 0.20261,-1.96687 0.35481,-3.76481 0.26763,-2.9852 0.20947,-5.98574 0.45709,-8.97084 0.26373,-2.59305 0.47719,-5.19137 0.60749,-7.79458 0.2555,-2.0129 0.40161,-4.04692 0.83913,-6.03113 0.24548,-0.97346 0.5212,-1.9391 0.8865,-2.87496 0.17359,-0.40683 0.24816,-0.83648 0.56945,-1.1494 1.46894,-0.33341 2.61726,-1.66975 4.06623,-2.18973 0.12808,-0.046 0.26465,-0.0682 0.38933,-0.12273 0.25587,-0.11185 0.47816,-0.29091 0.73167,-0.408 0.15269,-0.0705 0.31281,-0.12374 0.46921,-0.18561 1.09927,-0.38633 2.22837,-0.39274 3.35809,-0.16994 0.141,0.034 0.282,0.068 0.423,0.10206 0,0 -3.22455,2.23075 -3.22455,2.23075 v 0 c -0.13264,-0.0304 -0.26528,-0.0608 -0.39792,-0.0911 -1.10168,-0.16322 -2.18432,-0.10303 -3.22004,0.34975 -1.46773,0.69258 -5.12551,2.30749 1.09984,-0.94546 -0.50491,0.14859 -0.49686,0.48016 -0.69588,0.93825 -0.4319,0.93997 -0.66432,1.86336 -0.96943,2.84539 -0.5379,1.9613 -0.72308,3.99124 -0.95921,6.00692 -0.11434,2.6215 -0.4396,5.22158 -0.66182,7.83532 -0.20774,2.75395 -0.0425,0.17962 -0.13106,2.8034 -0.07,2.07261 -0.28389,4.13886 -0.40505,6.20838 -0.17353,2.13936 -0.12921,1.63001 -0.31324,3.75261 -0.0213,0.24575 -0.23551,2.60778 -0.24699,3.00658 -0.0147,0.50916 0.0609,1.01794 0.0436,1.5275 -0.006,0.13602 -0.0244,0.63981 -0.0397,0.65094 -1.97294,1.43441 -2.71194,3.1128 -4.12681,1.79753 -0.76806,-0.74429 -1.67272,-1.37363 -2.14221,-2.3673 -0.14244,-0.2398 -0.52088,-0.8641 -0.63232,-1.10649 -0.0871,-0.18939 -0.14339,-0.39146 -0.21651,-0.58665 -0.28268,-0.75464 -0.59306,-1.50149 -0.78329,-2.28708 -0.51936,-1.41481 -1.1318,-2.79147 -1.91664,-4.07987 -0.663,-0.94175 -1.16965,-1.97808 -1.72683,-2.98494 -0.0933,-0.30787 -0.33203,-1.07901 -0.40014,-1.37682 -0.0558,-0.24394 -0.0818,-0.49388 -0.13211,-0.739 -0.18028,-0.87762 -0.44053,-1.73456 -0.71256,-2.58734 -0.21723,-0.68355 -0.40306,-1.37684 -0.62164,-2.05996 -0.47992,-1.49994 -1.21663,-2.90448 -1.62491,-4.42921 -0.57487,-2.21005 -1.2963,-4.39221 -2.23753,-6.47459 -0.19394,-0.53264 -0.41495,-1.05612 -0.58293,-1.59752 -0.18878,-0.60848 -0.21215,-1.23405 -0.33127,-1.85532 -0.3601,-1.61036 -0.15679,-0.2659 3.54995,-2.16198 0.0116,-0.006 -0.0162,0.0218 -0.0179,0.0347 -0.0104,0.0771 -0.0146,0.15496 -0.0183,0.23266 -0.0169,0.35665 -0.0174,0.73389 -0.0218,1.08824 0.0136,1.81137 0.0662,3.62617 0.29824,5.42473 0.19459,1.43959 0.417,2.88592 0.46449,4.34007 0.0165,0.50647 -0.003,1.01348 -0.003,1.52021 -6e-5,0.55836 0.002,1.11671 0.002,1.67506 0.0145,3.91957 0.0316,7.84526 -0.27335,11.75588 -0.33252,3.18053 -0.61168,6.36729 -1.0827,9.53002 0,0 -3.59818,1.62793 -3.59818,1.62793 z"
           id="path55"
           style="fill:#ffb380;stroke-width:0.26458332" />
        <path
           inkscape:connector-curvature="0"
           d="m 108.68432,157.23133 c 0.79121,-0.40241 1.59377,-0.32143 2.38483,0.0236 0.78784,0.55692 0.85373,1.51867 0.78259,2.40483 -0.14904,0.74936 -0.63372,1.38155 -1.31493,1.73911 -3.93809,2.06704 -2.47269,2.05481 -4.46039,1.94834 -1.2886,-0.12076 -1.70058,-0.62967 -2.0471,-1.81556 -0.61011,-2.94926 2.10208,-3.44033 4.41085,-4.77108 0.78367,-0.0785 1.02643,0.0755 1.36525,0.76292 0,0 -3.42913,1.93817 -3.42913,1.93817 v 0 c -0.21023,-0.51932 -0.52788,-0.40561 -0.99412,-0.27081 5.78955,-3.54448 2.8052,-2.13875 2.19425,-0.97856 -0.24364,0.46268 -0.23071,0.9567 -0.11703,1.45001 0.29673,1.07364 0.63549,1.34239 1.77332,1.39347 1.62027,-0.0832 0.53775,-0.10839 -2.32857,1.74826 -0.15298,0.0991 0.32885,-0.15916 0.48262,-0.25701 0.31791,-0.20232 0.59097,-0.41426 0.79205,-0.73859 0.0784,-0.1264 0.11408,-0.2747 0.17112,-0.41205 0.0735,-0.51647 0.14551,-1.3551 -0.27172,-1.77192 -0.0763,-0.0762 -0.17862,-0.12094 -0.26794,-0.18142 -0.78403,-0.26144 -1.50429,-0.1385 -2.23139,0.24262 0,0 3.10544,-2.45428 3.10544,-2.45428 z"
           id="path57"
           style="fill:#ffb380;stroke-width:0.26458332" />
        <path
           inkscape:connector-curvature="0"
           d="m 146.43841,155.45544 c 0.79121,-0.40241 1.59377,-0.32143 2.38483,0.0236 0.78784,0.55692 0.85373,1.51867 0.78259,2.40483 -0.14904,0.74936 -0.63372,1.38155 -1.31493,1.73911 -3.93809,2.06704 -2.47269,2.05481 -4.46039,1.94834 -1.2886,-0.12076 -1.70058,-0.62967 -2.0471,-1.81556 -0.61011,-2.94926 2.10208,-3.44033 4.41085,-4.77108 0.78367,-0.0785 1.02643,0.0755 1.36525,0.76292 0,0 -3.42913,1.93817 -3.42913,1.93817 v 0 c -0.21023,-0.51932 -0.52788,-0.40561 -0.99412,-0.27081 5.78955,-3.54448 2.8052,-2.13875 2.19425,-0.97856 -0.24364,0.46268 -0.23071,0.9567 -0.11703,1.45001 0.29673,1.07364 0.63549,1.34239 1.77332,1.39347 1.62027,-0.0832 0.53775,-0.10839 -2.32857,1.74826 -0.15298,0.0991 0.32885,-0.15916 0.48262,-0.25701 0.31791,-0.20232 0.59097,-0.41426 0.79205,-0.73859 0.0784,-0.1264 0.11408,-0.2747 0.17112,-0.41205 0.0735,-0.51647 0.14551,-1.3551 -0.27172,-1.77192 -0.0763,-0.0762 -0.17862,-0.12094 -0.26794,-0.18142 -0.78403,-0.26144 -1.50429,-0.1385 -2.23139,0.24262 0,0 3.10544,-2.45428 3.10544,-2.45428 z"
           id="path57-3"
           style="fill:#ffb380;stroke-width:0.26458332" />
      </g>
    </g>
  </g>
</svg>
